Coordinates
version=1
nRows=9
nColumns=24
inDegrees=yes

Units are S.I. units (second, meters, Newtons, ...)
Angles are in degrees.

endheader
time	pelvis_tilt	pelvis_list	pelvis_rotation	pelvis_tx	pelvis_ty	pelvis_tz	hip_flexion_r	hip_adduction_r	hip_rotation_r	knee_angle_r	ankle_angle_r	subtalar_angle_r	mtp_angle_r	hip_flexion_l	hip_adduction_l	hip_rotation_l	knee_angle_l	ankle_angle_l	subtalar_angle_l	mtp_angle_l	lumbar_extension	lumbar_bending	lumbar_rotation
      4.85500000	     -7.93051445	      4.62594338	      2.81539536	     -1.42773463	     -0.00292750	     -0.34103573	     27.68509192	    -10.53949438	    -10.07736437	    -63.77348146	    -14.00274170	      4.00704637	     39.14445648	     11.18909094	      9.71809244	     15.50393001	    -13.49122535	      1.31467930	     -9.13720179	      1.32105167	      6.24149171	     -7.33344833	      0.11851027
      4.86000000	     -7.84770462	      4.43023598	      2.99817869	     -1.42292004	     -0.00255883	     -0.34130432	     28.20078659	    -10.33359310	    -10.18891534	    -63.20929450	    -13.41936400	      4.13682155	     39.25939880	     10.65756077	      9.51379002	     15.77140849	    -13.29077178	      1.52779039	     -9.10523687	      1.33844636	      6.07504110	     -7.15842244	     -0.27759296
      4.86500000	     -7.75732460	      4.24700551	      3.17495836	     -1.41812425	     -0.00223198	     -0.34155059	     28.69216173	    -10.13372250	    -10.28548379	    -62.58753550	    -12.84119217	      4.24367350	     39.30044266	     10.11928682	      9.31298692	     16.01434510	    -13.08381618	      1.74055738	     -9.05382977	      1.39845283	      5.90087553	     -6.99442810	     -0.66483466
      4.87000000	     -7.64798747	      4.07678140	      3.35122422	     -1.41335314	     -0.00193534	     -0.34177659	     29.14441537	     -9.94412727	    -10.37556389	    -61.90959737	    -12.25573146	      4.33538621	     39.24644586	      9.56359754	      9.11745998	     16.23826382	    -12.87450061	      1.95080070	     -8.98518555	      1.50432293	      5.70315638	     -6.84259452	     -1.04806104
      4.87500000	     -7.53813318	      3.91522955	      3.51333209	     -1.40858828	     -0.00168440	     -0.34196552	     29.58119386	     -9.74997010	    -10.43912706	    -61.17603970	    -11.68866770	      4.40788705	     39.09821065	      9.00860747	      8.92125276	     16.43293859	    -12.65904764	      2.15258207	     -8.91107134	      1.65359530	      5.50663956	     -6.69583241	     -1.41426880
      4.88000000	     -7.41340187	      3.76733021	      3.66991443	     -1.40384509	     -0.00148677	     -0.34211861	     29.98510819	     -9.56364085	    -10.49215955	    -60.39363766	    -11.10823411	      4.46704643	     38.83604587	      8.44322822	      8.73303485	     16.61428379	    -12.44848686	      2.35909979	     -8.84465656	      1.85970803	      5.29059780	     -6.56270042	     -1.76179105
      4.88500000	     -7.29642959	      3.62489642	      3.81579470	     -1.39909746	     -0.00132944	     -0.34223490	     30.37836468	     -9.37094412	    -10.51835431	    -59.55252026	    -10.55387867	      4.53062764	     38.49081966	      7.88634927	      8.54412524	     16.78162443	    -12.23245169	      2.54367053	     -8.79447431	      2.08822367	      5.08793033	     -6.43458752	     -2.10039322
      4.89000000	     -7.28846350	      3.49767217	      3.89887689	     -1.39438126	     -0.00134119	     -0.34224749	     30.89780233	     -9.14798720	    -10.43062974	    -58.64714869	    -10.13593843	      4.51503254	     38.38883423	      7.46133095	      8.37153779	     16.91347449	    -12.04053012	      2.73648279	     -8.80249866	      2.18816139	      5.01144575	     -6.32048337	     -2.33336909
      4.89500000	     -7.05103086	      3.37475327	      4.04684977	     -1.38959373	     -0.00112002	     -0.34229926	     31.09854989	     -8.96844479	    -10.47051839	    -57.70933456	     -9.44724938	      4.68665366	     37.43235220	      6.76201093	      8.18634016	     17.08067271	    -11.79632710	      2.83009083	     -8.83198188	      2.52331168	      4.67774159	     -6.20557918	     -2.67855687
